<svg id="Calque_1" data-name="Calque 1" xmlns="http://www.w3.org/2000/svg" viewBox="0 0 379.59 131.12"><defs><style>.cls-1{fill:#471b51;}.cls-2{fill:#ff2232;}.cls-3{fill:#ff2444;}</style></defs><title>INFast</title><path class="cls-1" d="M167.11,42.9h14.06V87.58H167.11Z"/><path class="cls-1" d="M241,42.9V87.58H226.91l-21-24.81V87.58H192.19V42.9h14.06l21,24.68V42.9Z"/><path class="cls-2" d="M250.2,42.83h27v7.11H258.43V62.79h15.09v6.33H258.43V87.56H250.2Z"/><path class="cls-2" d="M276.88,59.1a23.84,23.84,0,0,1,14.23-4.81c4.08,0,7,1,8.76,3.06s2.64,5.07,2.64,9.06V79.13c0,1.71.5,2.57,1.51,2.57a2.92,2.92,0,0,0,1.09-.23A3.81,3.81,0,0,0,306,81l.26-.19L306,87.23a15.44,15.44,0,0,1-5.47,1,5.47,5.47,0,0,1-4.08-1.35,6.89,6.89,0,0,1-1.58-4.32q-4.68,5.67-10.81,5.67a9.27,9.27,0,0,1-6.59-2.34,8.52,8.52,0,0,1-2.5-6.55,7.61,7.61,0,0,1,2.63-6.2,20.11,20.11,0,0,1,7.78-3.49l6-1.51A7.6,7.6,0,0,0,294,66.91a2.52,2.52,0,0,0,.69-2q0-4.33-4.81-4.34c-4.12,0-8.08,1.84-11.85,5.53Zm7.28,22.27a3.87,3.87,0,0,0,2.93,1.12q4,0,7.51-4.74v-7a8.52,8.52,0,0,1-2.9,1.45l-3.95,1.19a7.84,7.84,0,0,0-3.62,1.84,4.32,4.32,0,0,0-1.06,3.1A4.16,4.16,0,0,0,284.16,81.37Z"/><path class="cls-2" d="M322.8,82.09A3.74,3.74,0,0,0,324.32,79q0-3-4.61-4.09L315,73.79c-5.58-1.31-8.37-4.35-8.37-9.09a10.34,10.34,0,0,1,2.9-7.31q2.9-3.11,9.42-3.1,7.65,0,12.58,3.62l-1.64,5.67a16.93,16.93,0,0,0-4.85-3.06,13.54,13.54,0,0,0-5.43-1.29,5.36,5.36,0,0,0-3.82,1.25,4.11,4.11,0,0,0-1.32,3.1q0,2.64,4.22,3.69l4.67,1a15.56,15.56,0,0,1,7.19,3.36,7.89,7.89,0,0,1,2.37,6,9.41,9.41,0,0,1-3.56,7.61q-3.56,2.92-9.82,2.93a19.85,19.85,0,0,1-13.44-4.61l1.85-5.8a18.77,18.77,0,0,0,5,3.82,12.33,12.33,0,0,0,5.92,1.65A6.12,6.12,0,0,0,322.8,82.09Z"/><path class="cls-2" d="M345.8,77.35c0,2.68,1.09,4,3.29,4,2,0,3.84-1.05,5.6-3.16v7.7a12.46,12.46,0,0,1-7.77,2.31q-9.23,0-9.23-9.88V60.55h-5.53V55a32,32,0,0,0,4.22-.2,4.86,4.86,0,0,0,2.5-1.25,5.18,5.18,0,0,0,1.55-3.1,44.91,44.91,0,0,0,.49-5.79h4.88V55H355v5.6H345.8Z"/><path class="cls-1" d="M122.41,29.66a8.2,8.2,0,0,0-11.53.74L82.3,62.88l-46.45-.25A8.17,8.17,0,1,0,35.77,79l50.14.28a8.11,8.11,0,0,0,2.75-.48l.29-.1.28-.12a8.09,8.09,0,0,0,2.9-2.09l31-35.26A8.21,8.21,0,0,0,122.41,29.66Zm-2.62,7.05a2.81,2.81,0,0,1-1.42,1.64,2.41,2.41,0,0,1-.56.22,2.91,2.91,0,0,1-1.6,0,2.85,2.85,0,0,1-1.81-3.58,2.81,2.81,0,0,1,1.42-1.64,2.83,2.83,0,0,1,4,3.41Z"/><path class="cls-3" d="M139.45,49a8.13,8.13,0,0,0-8.11-7.59l-.58,0a8.08,8.08,0,0,0-5.59,2.78l-13,15h0l-20.87,24c-2.53,2.53-7.25,4.31-11.71,4.31A18.15,18.15,0,1,1,89.79,54.37l10.6-12a34.13,34.13,0,1,0-20.83,61.17c8.62,0,18.06-3.78,22.51-8.51l35.41-40.1A8,8,0,0,0,139.45,49Zm-5.66,1.91A2.79,2.79,0,0,1,132,52.11a2.54,2.54,0,0,1-.61.07,2.89,2.89,0,0,1-1.53-.44,2.84,2.84,0,0,1,.9-5.16,2.83,2.83,0,0,1,3,4.29Z"/></svg>