<?xml version="1.0" encoding="utf-8"?>
<!DOCTYPE svg PUBLIC "-//W3C//DTD SVG 1.1//EN" "http://www.w3.org/Graphics/SVG/1.1/DTD/svg11.dtd">
<svg version="1.1" xmlns="http://www.w3.org/2000/svg" xmlns:xlink="http://www.w3.org/1999/xlink" x="0px" y="0px"
	 viewBox="0 0 1200 459" enable-background="new 0 0 1200 459" xml:space="preserve">
<g id="Calque_15">
	<path fill="#B8975B" d="M0,0v459h1200V0H0z"/>
	<path fill="#B8975B" d="M295.773,283.641c-0.75,0.463-0.479,0.963,0.793,1.461c2.697,1.057,13.434,1.086,13.434,0.037
		C310,284.039,297.293,282.701,295.773,283.641z"/>
	<path fill="#B8975B" d="M256.943,278.201c-3.989-0.335-8.943,1.208-8.943,2.786c0,1.253,7.557,0.263,10.5-1.374
		C260.298,278.612,260.141,278.47,256.943,278.201z"/>
</g>
<g id="Calque_13">
	<path fill="#92683B" d="M906.605,333c-1.925,0-2.365,0.489-2.25,2.5c0.08,1.374,0.707,2.499,1.395,2.5
		c0.729,0,1.279,1.354,1.32,3.25c0.059,2.724,0.209,2.926,0.93,1.25c0.473-1.1,0.891-3.688,0.93-5.75
		C908.992,333.441,908.719,333,906.605,333z"/>
	<path fill="#92683B" d="M387.804,304.796c-0.939,0.939,0.466,1.204,6.371,1.204c8.751,0,13.825-0.824,13.825-2.244
		C408,302.324,389.314,303.287,387.804,304.796z"/>
	<path fill="#92683B" d="M0,0v459h1200V0H0z M918.281,329.117c2.435-1.304,4.719-0.899,4.719,0.835c0,1.271-2.229,1.78-4.873,1.115
		l-2.373-0.598L918.281,329.117z M928.112,330.069c-0.908-0.561-0.834-1.056,0.297-1.993c1.491-1.238,3.591-0.727,3.591,0.876
		C932,330.199,929.489,330.921,928.112,330.069z M955.25,328.647c-1.788-0.328-4.301-0.197-5.584,0.291
		c-1.338,0.508-2.938,0.513-3.75,0.011c-1.213-0.75-1.2-1.081,0.084-2.305c2.894-2.757,5.452-2.765,9.05-0.026l3.45,2.625
		L955.25,328.647z M971.559,328.426c-2.255,1.828-3.201,1.963-4.059,0.574c-0.34-0.55-0.254-1.006,0.191-1.014
		c0.444-0.008,1.934-0.266,3.309-0.574C973.413,326.871,973.433,326.906,971.559,328.426z"/>
	<path fill="#92683B" d="M121.828,273.494c-0.919-0.356-2.668-0.115-3.885,0.536c-1.76,0.942-1.93,1.364-0.828,2.061
		c1.858,1.178,2.19,1.139,4.444-0.52C123.314,274.279,123.34,274.081,121.828,273.494z"/>
	<path fill="#92683B" d="M319.77,298.588c-3.105-1.092-4.3-0.412-3.398,1.935c0.408,1.066,1.55,1.504,3.373,1.293
		C323.27,301.412,323.282,299.823,319.77,298.588z"/>
	<path fill="#92683B" d="M267.996,258.151c-3.079,1.073-3.178,1.243-1.458,2.5c2.082,1.522,10.214,1.791,12.398,0.409
		c1.19-0.752,1.212-1.178,0.128-2.484C277.523,256.721,272.639,256.533,267.996,258.151z"/>
	<path fill="#92683B" d="M357.161,268c-2.639,0-7.018,0.643-9.729,1.43c-2.713,0.785-6.857,1.932-9.212,2.546
		c-2.354,0.614-4.015,1.547-3.69,2.071c1.281,2.073,32.269,0.262,34.786-2.034C370.676,270.773,362.277,268,357.161,268z"/>
	<path fill="#92683B" d="M367,288.5c-5.146,0-8.615,1.884-6.208,3.371c1.21,0.748,12.225,0.318,13.142-0.512
		C375.258,290.159,371.235,288.5,367,288.5z"/>
</g>
<g id="Calque_8">
	<path fill="#4D3120" d="M264.044,324.309c4.704-0.558,7.044-0.014,11.955,2.775c0.825,0.469,2.4,0.602,3.5,0.295
		c5.875-1.634,14.818-2.421,21.145-1.861c4.169,0.369,7.389,0.238,7.731-0.316c0.322-0.522-0.509-2.131-1.847-3.575
		c-2.869-3.097-9.107-3.604-12.993-1.058c-2.445,1.602-12.667,1.557-28.023-0.125c-5.979-0.655-16.514,0.934-16.514,2.489
		C248.999,324.129,258.346,324.982,264.044,324.309z"/>
	<path fill="#4D3120" d="M148.336,334.953c-1.393-1.366-8.583-1.576-9.045-0.264c-0.271,0.771,1.095,1.301,3.895,1.507
		C148.01,336.552,149.58,336.173,148.336,334.953z"/>
	<path fill="#4D3120" d="M335.755,323.25c0.268-0.814-0.637-1.25-2.591-1.25c-3.646,0-6.165,0.885-6.165,2.164
		C326.999,325.573,335.274,324.709,335.755,323.25z"/>
	<path fill="#4D3120" d="M318.877,327.097c2.199-1.394,0.308-3.097-3.437-3.097c-3.729,0-4.479,1.296-1.691,2.92
		C315.911,328.18,317.103,328.221,318.877,327.097z"/>
	<path fill="#4D3120" d="M343.859,326c2.246,0,3.855-4.684,2.184-6.355c-1.475-1.476-5.534,2.635-4.714,4.771
		C341.663,325.287,342.802,326,343.859,326z"/>
	<path fill="#4D3120" d="M133.999,326.02c0-1.794-4.632-2.177-8.09-0.67l-3.41,1.487l5.75,0.081
		C131.412,326.963,133.999,326.559,133.999,326.02z"/>
	<path fill="#4D3120" d="M716.178,383.116l415.918-31.672l-66.302-103.375l-348.184,8.529L716.178,383.116z M804.661,329.393
		c-4.648,1.247-7.258-0.41-5.58-3.546c1.338-2.501,3.144-2.321,5.649,0.56l2.093,2.406L804.661,329.393z M832.999,330
		c-1.182-0.73-1.23-1.17-0.241-2.158c0.966-0.966,1.508-0.975,2.441-0.042C836.821,329.422,835.004,331.239,832.999,330z
		 M949.249,330.65l-11.75-0.15c0,0-1.028-7.5-1.525-7.5c-1.47,0-2.914,3.515-2.343,5.7c0.347,1.325-0.056,2.248-1.164,2.674
		c-1.363,0.523-0.477,2.115-0.477,2.115l-39.157,1.178c0,0-1.061-5.933,0.416-6.772c2.464-1.399,2.175-2.895-0.559-2.895
		c-4.599,0-6.002-2.105-5.216-7.823c0.701-5.1,0.778-4.86,4.168-5.177c5.357-0.5,11.167,3.023,13.991,3.383
		c2.824,0.361,6.463,1.318,8.086,2.128c3.52,1.756,14.373,3.634,19.279,3.335c10.058-0.611,18.02,0.781,23.742,4.154
		c2.333,1.375,4.246,3.242,4.25,4.15C960.998,330.6,959.566,330.783,949.249,330.65z M979.972,329.518
		c-1.538,0.949-12.523,1.598-13.336,0.786c-1.489-1.489-0.385-3.03,3.357-4.681c4.359-1.924,6.829-1.582,9.44,1.303
		C980.649,328.271,980.802,329.004,979.972,329.518z M1013.749,329.75c-0.138,0.412-3.175,0.752-6.75,0.754
		c-3.575,0.002-7.85,0.283-9.5,0.625c-3.244,0.672-11.975-0.27-13.12-1.416c-1.102-1.102,1.4-5.713,3.099-5.713
		c0.837,0,1.522,0.45,1.522,1c0,1.328,2.592,1.272,4.797-0.105c1.382-0.862,2.591-0.642,5.524,1.005
		c3.087,1.733,4.727,1.995,9.217,1.468C1013.769,326.752,1014.619,327.141,1013.749,329.75z M1032.481,330.029
		c-0.794,1.283-14.187,1.257-14.982-0.029c-1.331-2.154,0.757-3.037,5.824-2.465C1031.145,328.42,1033.14,328.963,1032.481,330.029z
		 M1067.746,330.25c-0.301,0.897-3.218,1.222-10.333,1.15c-5.453-0.056-15.589-0.43-16.414-0.072
		c-1.796,0.779-4.78-0.878-3.645-2.023c1.639-1.653,17.959-2.867,21.645-1.611c1.925,0.656,4.775,1.219,6.333,1.25
		C1067.139,328.98,1068.014,329.453,1067.746,330.25z M1094.714,328.373c-0.464,1.415-7.321,2.072-8.121,0.779
		c-0.754-1.22,4.966-3.259,6.977-2.486C1094.402,326.984,1094.917,327.754,1094.714,328.373z"/>
	<path fill="#4D3120" d="M898.999,325.123c0,1.213,4.739,1.108,5.5-0.123c0.34-0.55,1.754-1,3.143-1c1.587,0,2.361-0.465,2.085-1.25
		C908.842,320.227,898.999,322.403,898.999,325.123z"/>
	<path fill="#4D3120" d="M93.499,335c-0.76,0-1.66,0.45-2,1c-0.352,0.569,0.509,1,2,1s2.352-0.431,2-1
		C95.159,335.45,94.259,335,93.499,335z"/>
	<path fill="#4D3120" d="M106.877,327.097c2.406-1.524,0.363-3.163-2.382-1.913c-1.338,0.609-2.195,1.493-1.905,1.963
		C103.263,328.236,105.112,328.215,106.877,327.097z"/>
</g>
<g id="Calque_7">
	<path id="path3001_1_" fill="#0F152A" d="M-1,0h1201.05v459H-1 M1023.301,334.148
		c0.354-1.353,13.483-1.81,14.109-1.321c1.402,1.092,41.206-0.484,43.412-1.719c0.857-0.48,13.354-0.439,18.329-1.178
		c6.919-1.024,9.282-1.779,10.046-3.205c0.732-1.369-223.852-41.364-224.447-28.225c-1.048,23.126-4.373,24.354-2.441,27.48
		c2.382,3.855,10.162,5.179,10.162,5.179S1011.829,333.536,1023.301,334.148z M860.05,346.383c0,0-2.578-10.039-8.584-6.924
		c-2.551,1.323-3.107,1.277-5.982-0.5c-1.743-1.077-7.94-3.16-8.453-3.99c-0.574-0.93-0.323-2.038,0.725-3.195
		c1.477-1.632,1.46-1.934-0.205-3.773c-3.439-3.801-8.371-1.226-5.735,2.995c1.545,2.473-1.921,8.011-5,7.989
		c-2.841-0.02-4.148-0.883-5.65-3.734c-1.467-2.786-3.698-2.896-5.114-0.25c-1.47,2.746-5.406,2.555-7.314-0.356
		c-1.401-2.139-1.391-2.51,0.109-4.01c1.537-1.537,1.399-1.906-1.972-5.276c-4.106-4.107-6.209-4.081-11.322,0.14
		c-2.638,2.177-2.848,2.718-1.741,4.489c1.911,3.061-8.351,6.228-6.177,7.152C813.354,348.077,860.05,346.383,860.05,346.383z
		 M820.657,328.418c-0.334-0.869-0.607-1.994-0.607-2.5c0-0.505-0.675-0.918-1.5-0.918c-1.5,0-2.092,3.075-0.833,4.334
		C819.073,330.69,821.267,330.008,820.657,328.418z M863,301.5c-0.384-10.621-111.375,12.313-111.375,12.313
		s10.72,0.472,11.875,1.271c7.833,5.417,91.72,6.405,92.625,6.551C869.625,323.807,863,301.5,863,301.5z"/>
</g>
<g id="CielBleu">
	<path id="CielBleuPath" opacity="1" fill="#0055FF" d="M-1,0h1201.05L1200,325.98l-78.167,0.02l-12.636,0.725
		c0.732-1.369-212.309-35.917-223.057-28.335c-5.472,3.86-21.804,2.201-21.804,2.201c-6.124-6.956-79.303,6.524-102.871,11.239
		c-1.417,0.283-24.708,5.716-25.715,5.92c-1.338,0.272-470.33,24.917-530.581,11.669c-56.788-12.486-118.658-9.173-158.669-0.457
		c-27.833,6.063-46.486,6.104-46.486,6.104L-1,0z"/>
</g>
<g id="Ciel">
	<radialGradient id="gradientSky" cx="237.898" cy="372.7699" r="546.8939" gradientUnits="userSpaceOnUse">
		<stop  offset="0" style="stop-color:#FF603D"/>
		<stop  offset="1" style="stop-color:#444444"/>
	</radialGradient>
	<path id="pathSky" opacity="0.7" fill="url(#gradientSky)" d="M-1,0h1201.05L1200,325.98l-78.167,0.02l-12.636,0.725
		c0.732-1.369-212.309-35.917-223.057-28.335c-5.472,3.86-21.804,2.201-21.804,2.201c-6.124-6.956-79.303,6.524-102.871,11.239
		c-1.417,0.283-24.708,5.716-25.715,5.92c-1.338,0.272-470.33,24.917-530.581,11.669c-56.788-12.486-118.658-9.173-158.669-0.457
		c-27.833,6.063-46.486,6.104-46.486,6.104L-1,0z"/>
</g>

<g id="Brest_1_">
	<g id="Fonce_1_">
		<path fill="#4D3120" d="M46.5,332.667c0,0,4.333-9.726,38.246-9.667c19.576,0.034,40.036-2.455,59.255-3.407
			c22.034-1.092,66.298-0.233,87.833,2.407c25.334,3.106,35.06,1.393,56.667,1.737c32,0.51,46.225-5.634,77.511-0.996
			c14.069,2.085,27.039-0.244,41.988,0.501c8.942,0.446,44.717,9.155,31.847,8.073c-16.019-1.347-151.686,5.443-202.85,1.925
			c-17.261-1.187-69.216-5.931-92.997-6.895C130,325.778,46.5,332.667,46.5,332.667z"/>
	</g>
	<g id="Clair">
		<path fill="#92683B" d="M310,328.64c7.233-3.759,31.809-3.607,41.976-2.294c12.088,1.561-10.681,2.882-16.143,1.654
			C335.833,328,308.077,329.639,310,328.64z"/>
		<path fill="#92683B" d="M110.38,323.74c13.501,0,19.189-2.75,35.453-0.299c-20,0.666-13.935-2.067-37.704,2.486
			C100.879,327.315,102.609,323.74,110.38,323.74z"/>
	</g>
</g>
<g id="RefletD">
	<radialGradient id="gradientReflectionRight" cx="802.3441" cy="328.7126" r="500" gradientUnits="userSpaceOnUse">
		<stop  offset="0.1314" style="stop-color:#A0B8FF"/>
		<stop  offset="0.656" style="stop-color:#3F3F3F"/>
		<stop  offset="0.9072" style="stop-color:#000000"/>
		<stop  offset="0.9922" style="stop-color:#000000"/>
	</radialGradient>
	<path id="pathRight" opacity="1" fill="url(#gradientReflectionRight)" stroke="#000000" stroke-width="0.5" stroke-miterlimit="10" d="M511.5,329.969l373,1.031l141,2.809
		l47,14.175c0,0-32.665,11.543-45,17.517c-5.762,2.79-43.787,7.287-50,8.833c-64.67,16.094-68.771,3.432-93.543,6
		c-53.769,5.573-194.123-29.667-194.385-9.015c-0.058,4.561,8.138,11.569,6.929,15.682c-2.905,9.878-39.142,12.811-39.142,12.811
		S647.635,380.55,641.5,381c-6.16,0.452-8.451,16.833-13,21.013c-5.487,5.042-28.975,6.987-28.975,6.987s-46.464,8.803-60.025-2
		C523.727,394.436,511.5,329.969,511.5,329.969z"/>
</g>
<g id="RefletG">	
	<radialGradient id="gradientReflectionLeft" cx="274.6628" cy="338.8935" r="237.9303" gradientTransform="matrix(0.9999 -0.0122 0.0091 0.75 -3.0738 88.0632)" gradientUnits="userSpaceOnUse">
		<stop  offset="0.2281" style="stop-color:#A0B8FF"/>
		<stop  offset="0.6873" style="stop-color:#3F3F3F"/>
		<stop  offset="0.9072" style="stop-color:#000000"/>
		<stop  offset="0.9922" style="stop-color:#000000"/>
	</radialGradient>
	<path id="pathLeft" opacity="1" fill="url(#gradientReflectionLeft)" stroke="#000000" stroke-miterlimit="10" d="M0,328.962l30.05,4.847
		c0,0,83.309-7.906,111.172-7.887c29.674,0.021,88.819,6.427,118.485,7.078c39.693,0.872,158.793-2.5,158.793-2.5l79.891,2.5
		l8.109,126H0.051L0,328.962z"/>
</g>

<g id="Nuages">
	<g>
		<path id="pathCloud" opacity="1" fill="#040816" d="M1192.495,226.008
			c0.761-1.231-13.226-1.949-26.995-1.386c-7.15,0.292-18.175,0.707-24.5,0.921c-6.325,0.214-27.491,0.818-36.903,1.809
			c-4.396,0.463-6.22,0.274-7.024-0.728c-1.707-2.129,24.676-11.287,8.642-23.809c-4.928-2.106-44.592-16.9-44.715-17.706
			c-1.667-10.958-19.552-10.999-19.25-11.784c0.337-0.877-10.486-4.747-12.5-5.826c-3.854-2.065-6.68-1.894-8-1.905
			c-0.96,4.572-9.816-3.636-11.25-4.383c-1.433-0.747-6.865-7.192-9.833-7.878c-2.967-0.686-11.506-1.236-12.724-1.999
			c-1.218-0.763-11.677-0.935-12.276-0.935s-11.781,1.985-14.089,0.935c-2.308-1.05-12.711,2.728-14.911,2.332
			c-2.2-0.397-8.997,3.864-9.667,3.333c-0.669-0.53-9.625-3.923-10.333-3.666c-5.278,1.916-4.875,9.052-5.278,7.878
			c-1.951-5.674-7.988,6.827-11.288,5.591c-3.3-1.236-5.375,5.449-6.932,4.65c-3.71-1.904-3.67-0.142-5.669,0.187
			c-9.833,1.619-13.043,5.736-12.853,10.995c-1.729,1.264-16.079,14.617-18.161,14.073c-1-0.262-2.276-0.017-2.838,0.545
			c-1.207,1.207-4.611-1.694-3.706-3.158c0.313-0.507,0.195-1.971,2.808-2.014c4.928-0.082,5.817-12.746,3.503-7.131
			c-1.341,3.252-5.753,5.425-8.382,2.945c-3.928-2.893-7.644-0.227-10.371-2.464c-3.843-3.152-8.674-4.095-13.65,1.342
			c-0.285,1.09-6.369,5.78-7.408,6.229c-2.774,1.199-10.932,0.342-12.958-2.495c-2.15-2.171-12.19-3.391-14.824-6.564
			c-3.229-3.888-3.639-6.94-0.931-6.94c1.908,0,4.148-4.039,4.3-7.75c0.104-2.544-2.528-3.916-4.695-0.782
			c-4.739,5.698-17.166,10.365-29.59,0.633c-4.776-3.025-12.619-6.17-13.622-5.786c-1.187,0.455-1.561,1.3-1.149,2.596
			c0.656,2.067-6.347,1.003-10.472,0.605c-5.448-0.525-9.876-6.018-13.471-3.54c-2.696,1.858-4.977-1.034-6.469,0.943
			c-1.481,1.964-22.227-0.085-23.469-4.428C697,152.5,676.31,150,673.965,150c-3.298,0-3.965-0.336-3.965-2
			c0-1.666,3.75-6.932,0.123-5.8c-2.268,0.708-5.37,2.8-6.893,2.8c-2.265,0-3.224-0.838-5.25-4.587
			c-2.378-4.398-2.634-4.566-6.218-4.097c-2.826,0.371-4.401-0.035-6.46-1.663c-3.963-3.135-12.635-7.153-19.302-4.822
			c-0.545,0.191-8.5-7.998-18.191-5.816c-8.283,1.485-16.309-2.349-21.496-7.938c-2.479-2.577-3.363-9.411-10.588-8.638
			c-3.459,0.371-6.942,1.078-7.741,1.571c-8.15,1.99-26.15-8.844-35.771-9.01c-2.875-0.05-15.379,1.5-17.859-2.047
			c-2.293-3.279-10.354-6.287-15.24-6.151c-4.613,0.364-6.108-4.925-12.613-4.651c-6.272,0.264-13.833-4.151-15.052-8.068
			c0.218-2.916-0.615-4.249-5.232-2.778C464.565,77.799,447,70.667,444,66.294c-1.255-1.83-14.667-7.294-19.659-4.544
			c-1.543,0.85-4.874,1.588-7.626-0.144C413.482,59.57,395.5,56.667,391.35,60c-4.53,3.639-3.85-7.166-15.231-3.265
			C367.667,56,368.549,44,358.061,44c-5.115,0-17.561-5.166-24.713-0.494C330.333,46,321.833,45,320.415,41.862
			c-0.908-1.47-8.415-6.029-13.715-5.669c-5.2,0.14-4.396-3.703-11.951-3.018c-12.125,1.101-20.619,0.068-23.308-2.834
			c-2.66-2.87-5.542-2.994-7.941-0.342c-4.833,3.667-20,2-19.5-1.916c0.327-2.563-35.753-4.437-36.5-2.084
			c-0.817,2.575-4.869,2.642-8.059,0.133c-3.009-2.367-2.221-3.133,3.225-3.133c3.186,0,4.333-0.397,4.333-1.5
			c0-1.242-1.889-1.5-11-1.5c-10.803,0-11,0.041-11,2.294c0,2.172-0.371,2.295-6.931,2.295c-3.883,0-8.033,0.589-9.437,1.341
			c-2.148,1.15-5.632-2.043-5.632-2.358c0-0.314,2.911-0.571,6.469-0.571c5.339,0,6.368-0.262,5.893-1.5
			c-0.484-1.262-3.653-1.5-19.969-1.5C136.667,20,136,20.069,136,22c0,1.791,1.039,2.468,3.25,2.118
			c0.413-0.065,0.75,0.38,0.75,0.989c0,0.609-0.638,0.862-1.417,0.563c-0.78-0.299-1.179,1.047-1.935,0.804
			C79.167,8,13-0.004,13-0.004l1187,0.014l0.095,227.471L1192.495,226.008z"/>
	</g>
</g>
<g id="Ponts">
	<path id="pathPonts" fill="#0A0A0A" d="M1118.5,327.3l0.524-76.3
		c0,0-64.053,3.377-86.524,4.965c-31.186,2.202-148,15.596-148,15.596s-1.216,53.509-0.805,54.419l-21.182-3.73
		c0.304-1.237-0.014-46.75-0.014-46.75l-5.917,0.208c-19.604,0.69-144.679,20.261-184.333,28.843
		c-2.733,0.592-18.538,4.292-18.538,4.292S651,311,650.25,316.625l-13.612,2.506c0-3.658-2.568-6.326-7.591-5.522
		c-3.145,0.503-4.706,1.179-5.154,2.965c-0.319,1.272-0.284,2.794,0.079,3.381L609.5,318.5l0.215-2.078
		c0,0,14.835-4.533,19.785-5.914c4.95-1.381,26.925-7.35,41.5-10.964c14.575-3.613,33.41-8.36,41.856-10.549
		c13.839-3.586,64.919-13.866,70.144-14.993c11.595-2.504,39.432-7.684,51-9.492c4.675-0.73,45.759-7.622,55.602-9.022
		c9.844-1.4,34.219-5.154,81.898-10.915c11.55-1.396,51.911-6.449,72.5-8.072c10.175-0.803,89.782-6.597,123.75-7.201l32.85-0.556
		v18.805c0,0-64.864,2.467-65.6,3.15c-1.061,0.984-0.505,38.629,0.576,38.991L1118.5,327.3z M549.833,311.509
		c-0.369-0.739-8.817-17.941-9.16-18.589c-5.423-10.227-7.945-9.074-14.62,4.59c-3.59,7.348-4.916,12.306-3.63,13.574L483,312.172
		C406.5,137.698,148.744,155.333-0.196,260c-0.362,0.254-0.054-65.757-0.054-65.757s48.112-20.895,50.068-22.721
		c1.03-0.961,1.424-9.664,1.802-39.819l0.484-38.588c0,0-8.692-3.21-15.242-3.64c-9.737-0.639-10.731-0.541-11.738,1.164
		c-1.046,1.771-1.192,1.744-2.986-0.547C14.5,85.667-1,86.738-1,86.738V-0.227c0,0,32.291,6.078,36.269,7.117
		C367.101,89.333,506.5,229.5,582.903,310.75L549.833,311.509z M157.436,143.228c8.492-1.642,8.981-1.877,9.813-4.728
		c0.481-1.65-0.571-25.253-1.929-26.25c-2.326-1.707-7.798-1.571-11.384,0.283c-2.931,1.516-2.988,1.493-5.023-1.956
		c-2.413-5.91-15.413-7.244-21.491-4.839c-3.454,1.647-3.455,1.647-6.188-1.495c-2.366-2.719-3.901-3.353-11.411-4.712
		c-8.042-1.455-8.937-1.445-12.225,0.123c-3.519,1.678-3.568,1.669-6.025-0.981c-1.362-1.47-7.655-2.94-9.284-3.266
		c-5.849-1.17-5.949-0.678-6.767,33.214c-0.849,35.18-1.162,33.788,7.24,32.245C85.368,160.389,129.395,148.65,157.436,143.228z
		 M224,135c0.438-0.708,0.351-2.563-0.192-4.122c-0.969-2.78-5.287-4.858-10.124-4.873c-2.134-0.007-5.873,1.828-6.919,3.395
		c-1.144,1.713-0.894,5.067,0.485,6.494C208.896,137.597,222.855,136.853,224,135z M870.394,254.148
		c-0.499-0.362-0.967-21.613-1.06-48.148c-0.092-26.125-0.463-57.625-0.826-70c-1.244-42.414-1.367-39.213,1.561-40.861
		c2.78-1.565,6.215-1.115,9.431,1.237c2.185,1.598,2.258,2.926,1.205,22.124c-0.302,5.5-0.825,28.675-1.163,51.5
		c-0.775,52.476-1.503,81.129-2.084,82.068C876.714,253.272,871.359,254.848,870.394,254.148z"/>
</g>
<g id="BleuFonce">
	<path id="path2999_1_" fill="#040816" d="M541.365,420.002c0.5,0,1.407,0.6,2.016,1.332
		c0.785,0.946,3.502,1.274,9.372,1.132c4.547-0.11,16.565-2.296,27.767-3.472c5.225-0.549,15.4-3.13,16.5-3.527
		c2.514-0.908,20.065-3.627,21.365-4.348c1.3-0.721,3.73-1.109,5.399-0.865c3.697,0.543,8.408-1.646,9.25-4.299
		c0.341-1.074,3.891-3.08,3.579-5.619c-0.078-0.641,0.993-3.734,2.381-6.873c2.146-4.852,2.749-5.52,4.024-4.461
		c0.825,0.685,1.517,1.978,1.537,2.873c0.046,2.074,3.774,6.514,6.777,8.068c1.712,0.886,5.799,1.801,6.469,1.592
		c0.67-0.209,5.492-0.653,10.718-0.988c13.622-0.873,19.979-1.702,20.587-2.685c0.292-0.473,5.038-1.783,6.413-2.859
		s3.737-1.965,5.25-1.978c2.462-0.021,2.75-0.382,2.75-3.458c0-4.969-1.621-8.565-3.86-8.565c-1.966,0-6.252-9.152-7.593-8.039
		c-3.085,2.561-7.416-1.462-9.919-9.211c-0.771-2.386-1.958-2.197-3.141,0.5c-0.882,2.01-1.574,2.213-6.487,1.905
		c-3.097-0.194-18.065-4.542-17.693-5.511c0.322-0.84-0.794-1.983-2.927-3c-5.083-2.424-7.023-2.104-8.23,1.355
		c-1.42,4.074-2.922,3.772-3.726-0.75c-0.367-2.063-1.513-5.153-2.546-6.868c-2.461-4.085-2.37-6.147,0.372-8.451
		c1.856-1.56,2.002-2.054,0.828-2.825c-0.782-0.516-1.907-2.438-2.5-4.272c-0.842-2.602-1.627-3.334-3.578-3.334
		c-1.849,0-2.585,0.6-2.826,2.304c-0.518,3.656-4.337,4.499-11.844,2.616c-4.997-1.252-7.049-1.365-9.137-0.503
		c-3.47,1.434-17.146,0.778-18.164-0.869c-0.53-0.858-1.333-0.941-2.646-0.272c-1.036,0.528-3.909,1.593-6.384,2.364
		c-4.272,1.334-4.486,1.576-4.224,4.799c0.2,2.455-0.387,4.111-2.117,5.978c-2.31,2.491-15.369,23.446-16.512,25.725
		c-1.144,2.279-15.177,21.461-15.824,22.609c-0.646,1.147-1.922,2.504-2.834,3.014c-1.127,0.631-0.914,5.879-1.443,6.206
		c-0.771,0.477-0.771,7.575-0.001,17.028C538.609,424.052,540.864,420.002,541.365,420.002L541.365,420.002z M539.884,387.752
		c0.776-1.237,1.897-4.5,2.493-7.25c1.294-5.979,2.405-42.492,1.345-44.188c-0.408-0.652-2.001-1.666-3.538-2.25
		c-3.692-1.404-22.664-1.415-22.664-0.013c0,0.577,0.631,2.27,1.401,3.761c0.771,1.49,2.171,7.881,3.11,14.199
		c2.065,13.882,4.707,23.5,8.549,31.11C534.272,390.435,537.268,391.926,539.884,387.752L539.884,387.752z M832.278,378.78
		c0.302,0.904,2.655,1.053,9.074,0.57c8.454-0.635,10.621-1.551,9.688-4.098c-0.542-1.48,2.083-1.7,2.979-0.25
		c1.198,1.94,3.348,0.967,3.867-1.75c2.015-10.533,1.969-11.25-0.721-11.25c-2.662,0-4.089-1.219-2.869-2.451
		c0.398-0.401,1.534-5.143,3.223-5.545c2.298-0.547,2.375-13.291,1.862-14.254c-1.014-1.901-6.317-2.441-7.362-0.75
		c-1.07,1.731-4.784,1.096-10.231-1.75c-5.697-2.977-6.198-3.814-3.519-5.877c1.638-1.262,1.589-1.476-0.75-3.338
		c-3.021-2.405-5.316-2.563-7.042-0.484c-1.059,1.275-1.014,1.822,0.256,3.092c3.332,3.332-3.057,9.506-7.909,7.645
		c-0.727-0.279-1.592-1.583-1.922-2.898c-0.739-2.946-3.893-3.175-5.383-0.39c-1.482,2.771-5.408,2.553-7.348-0.407
		c-1.367-2.087-1.383-2.482-0.115-2.969c2.264-0.868,1.754-2.729-1.733-6.326c-3.695-3.814-5.543-4.077-9.076-1.298
		c-1.398,1.1-2.986,2-3.528,2c-1.792,0-2.142,2.915-0.541,4.516c1.43,1.43,1.419,1.742-0.126,3.448
		c-2.616,2.892-10.403,4.417-15.517,3.04c-2.324-0.625-4.966-0.833-5.87-0.461c-0.905,0.371-63.005,1.537-63.005,1.537
		s-1.273-5.67-2.834-5.893c-1.809-0.258-2.309,0.31-2.861,3.25c-0.726,3.871-1.687,4.215-7.288,2.607
		c-3.092-0.887-3.86-0.727-8.049,1.68c-0.216,0.124,0.565,1.024,1.734,2c2.04,1.703,2.096,2.287,1.39,14.459
		c0,0-2.378,9.964-0.736,12.683c1.27,2.104,6.967,3.167,9.767,1.099c2.995-2.215,3.836-2.225,12.237-0.132
		c2.2,0.548,12.1,1.278,22,1.622c9.9,0.344,20.925,1.265,24.5,2.047c6.128,1.34,47.442,5.281,60.5,5.772
		c3.3,0.124,7.542-0.212,9.426-0.746c2.532-0.718,3.532-0.653,3.834,0.249H832.278z M699.371,349.576
		c-1.344-2.949-0.354-7.574,1.622-7.574c0.849,0,1.704,1.429,2.091,3.492C704.22,351.547,701.588,354.44,699.371,349.576
		L699.371,349.576z M740.555,349.069c-0.569-1.064-1.035-2.931-1.035-4.147c0-2.147,0.227-2.193,7.65-1.565
		c4.209,0.355,10.059,0.646,13,0.646c3.977,0,5.35,0.367,5.35,1.433c0,1.516-1.16,1.997-7.326,3.04
		c-2.426,0.41-4.359,0.203-5.284-0.564c-1.176-0.976-1.849-0.793-3.463,0.94C746.884,351.602,741.975,351.721,740.555,349.069
		L740.555,349.069z M713.003,348.976c-0.349-0.565-1.388-0.902-2.309-0.75c-1.181,0.194-1.675-0.436-1.675-2.141
		c0-1.803,0.636-2.522,2.5-2.826c3.444-0.563,7.845-0.567,12-0.011c1.925,0.258,4.287,0.533,5.25,0.611
		c0.963,0.078,1.75,0.802,1.75,1.607c0,2.045-3.724,3.821-6.532,3.117c-1.29-0.324-2.624-0.138-2.966,0.414
		C720.208,350.315,713.82,350.297,713.003,348.976L713.003,348.976z M780.137,348.131c-2.186-2.414-1.38-4.129,1.941-4.129
		c2.691,0,3.133,1.672,1.156,4.375C782.019,350.04,781.853,350.028,780.137,348.131L780.137,348.131z M654.52,340.002
		c0-1.252-9.677-1.332-10.447-0.086c-0.82,1.328,1.506,2.072,4.822,1.544C650.476,341.208,654.52,340.552,654.52,340.002z
		 M682.938,341.395c2.912-1.117,1.623-2.393-2.418-2.393c-3.754,0-4.879,0.787-3.333,2.334
		C678.018,342.167,680.85,342.197,682.938,341.395L682.938,341.395z M820.9,328.252c-0.361-1.513-0.847-3.088-1.078-3.5
		c-0.63-1.123-3.09-0.903-3.861,0.346c-1.032,1.67,1.654,5.904,3.747,5.904C821.219,331.002,821.438,330.498,820.9,328.252z
		 M708.047,326.958c0.918-1.485-1.398-3.942-3.1-3.29c-2.191,0.842-1.777,4.334,0.515,4.334
		C706.528,328.002,707.691,327.533,708.047,326.958z M642.447,278.502c-0.323-21.081-0.142-29.619,0.647-30.408
		c1.448-1.448,1.794,3.166,1.552,20.691C644.238,298.389,642.846,304.537,642.447,278.502z M635.318,317.414
		c1.932-7.257,31.675-11.477,39.102-9.943c1.156,0.367,2.567,1.536,3.136,2.6c1.346,2.513,4.603,2.477,5.964-0.068
		c1.541-2.88,4.74-2.462,7.653,1c3.096,3.679,4.67,3.74,9.527,0.375c3.627-2.514,3.896-2.555,6.318-0.968
		c1.928,1.263,3.715,1.501,7.509,0.997c3.32-0.439,5.465-0.257,6.438,0.551c0.803,0.666,2.393,0.914,3.534,0.552
		c1.276-0.405,3.849,0.2,6.688,1.574c2.963,1.434,5.049,1.908,5.832,1.325c5.819-4.324,6.043-4.4,9.555-3.267
		c1.896,0.611,6.597,1.236,10.446,1.388c3.97,0.155,8.299,0.965,10,1.868c4.08,2.167,8.714,2.012,11.773-0.395
		c3.167-2.491,3.968-2.496,6.197-0.032c1.136,1.255,3.094,1.976,5.405,1.991c7.325,0.047,43.958,0.934,54.921,1.328
		c6.834,0.246,11.764,0.874,12.48,1.589c0.65,0.65,1.866,1.051,2.703,0.89l5.61,0.867c0,0,18.309-0.126,20.326,3.913
		c2.511,5.026,2.626,7.033,0.451,7.868c-1.468,0.563-0.323,47.95,1.315,52.587c1.752,4.957,2.282,5.56,5.381,6.105
		c1.891,0.334,8.577-0.501,11.191-1.074l0,0c5.448-1.193,21.452-0.52,23.258,0.979c1.395,1.158,7.096-0.921,11.54-4.206
		c2.417-1.787,3.218-1.905,6.102-0.9c2.772,0.967,3.857,0.867,6.589-0.604c3.251-1.75,3.874-3.781,1.172-3.818
		c-2.548-0.034-2.332-1.949,0.392-3.479c2.176-1.222,3.039-1.268,4.668-0.25c1.1,0.687,5.184,1.985,6.179,2.887
		c1.476,1.335,4.848-1.504,4.848-2.262c0-0.757,0.481-1.377,1.067-1.377c0.597,0,0.799,0.845,0.459,1.916
		c-0.334,1.054-0.187,2.176,0.329,2.494c1.263,0.781,6.644-2.087,6.644-3.541c0-0.637,1.575-1.305,3.5-1.483
		c1.925-0.179,28.75-3.059,29.3-4.007c0.44-0.758,3.7-2.054,3.7-2.879c0-1.896-0.489-1.881-3.531,0.112
		c-1.719,1.126-3.517,1.413-5.965,0.954c-3.681-0.69-4.649-2.826-1.963-4.329c2.236-1.252,0.817-3.917-2.75-5.16
		c-4.662-1.625-1.992-4.053,4.581-4.165c2.82-0.048,7.378-0.393,10.128-0.766l5-0.678l-5.188-1.734
		c-5.828-1.948-9.892-2.225-10.813-0.734c-0.34,0.55-1.321,1-2.182,1c-1.108,0-1.277-0.363-0.58-1.25
		c1.391-1.768,0.354-8.75-1.298-8.75c-0.737,0-1.757-0.743-2.265-1.651c-0.702-1.253-8.399-0.901-8.717-1.415
		c-0.886-1.434-4.068-1.109-5.45,0.556c-1.091,1.313-1.574,1.29-4.102-0.204c-3.822-2.258-1.874-3.512,4.236-2.725
		c2.739,0.353,4.899,0.18,5.272-0.422c0.427-0.69,1.567-0.692,3.537-0.006c2.105,0.734,20.945-2.633,21.647-3.214
		c0.9-0.747,1.903-0.722,3.416,0.089c2.491,1.332,4.199,0.503,4.986-1.334c1.147-2.676,11.814-3.509,14.225-0.971
		c1.533,1.388,2.246,1.484,3.8,0.514c1.13-0.706,39.227-2.278,40.614-3.375c0.688-0.546,2.141-0.443,3.682,0.258
		c2.001,0.912,19.209-1.891,19.666-1.607c1.334,0.824,5.406-3.492,9.014-3.492h5c0,0,16.209-36.773,15.98-37.002l1.641-4.711
		c1.189,1.19,3.379-0.588,3.379-2.744l0,0c0-1.233,1.35-4.107,3-6.385c1.65-2.277,3-4.505,3-4.95c0-2.126,2.714-6.284,4.5-6.896
		c2.572-0.881,6.413-0.521,9.183,0.863c2.995,1.496,5.317,0.377,5.317-2.563c0-6.43,2.266-7.16,6.347-2.046
		c2.622,3.286,2.983,3.444,4.579,2c0.952-0.862,2.911-1.567,4.354-1.567c3.297,0,5.084-2.779,3.077-4.787
		c-1.105-1.105-1.161-1.742-0.25-2.842l18.425-3.301L1200.05,459H-1V327.904c20.169,4.07,57.228,9.389,65.818,8.508
		c5.777-0.592,6.453-0.468,6.906,1.265c0.579,2.214,6.508,4.302,12.412,4.37c4.41,0.051,11.58,2.73,7.693,2.874
		c-2.731,0.101-3.83,1.667-1.733,2.472c0.924,0.354,1.434,1.499,1.245,2.794c-0.248,1.698-1.45,2.495-5.32,3.524
		c-7.896,2.103-28.547,6.291-31.015,6.291c-1.232,0-6.288,2.85-8.462,2.82c-4.524-0.063-6.365,0.848-5.623,2.781
		c0.295,0.77-2.449,2.246-3.096,3.282c-1.017,1.628-0.675,2.278,2.509,4.779c6.263,4.919,8.681,6.139,13.653,6.884
		c2.64,0.396,9.463,4.453,10.599,4.453c2.886,0,5.934,1.798,5.934,3.5c0,1.83,3.083,3.475,7.597,4.053
		c1.95,0.249,11.224,2.898,15.582,3.197c6.634,0.455,8.568,1.009,11.874,3.404c3.182,2.305,8.737,1.277,13.594,3.746
		c5.866,2.98,23.047,6.607,25.658,5.728c4.152-1.399,11.024-1.424,17.588-0.063c2.837,0.589,3.678,0.328,5.122-1.587
		c1.19-1.578,2.286-2.076,3.523-1.602c1.369,0.525-0.828,4.398,1.543,5.667c1.68,0.899,2.328,0.778,3.355-0.628
		c1.651-2.258,4.563-1.175,4.563,1.697c0,2.073,0.306,2.147,6.495,1.569c3.572-0.333,11.041-2.509,12.401-1.277
		c2.64,2.39,17.788,3.435,42.104,2.909c11.825-0.257,83.89-0.738,103.938-1.891c7.29-0.42,13.274-0.248,16.5,0.473
		c4.112,0.918,21.787-2.351,27.563-2.774c5.775-0.422,24.531-3.807,25.726-4.642c1.3-0.911,4.097-1.468,6.973-1.389
		c2.641,0.074,12.489-2.456,15.162-4.102c2.674-1.645,9.791-5.4,14.19-8.346c7.979-5.342,14.57-16.905,15.329-17.345
		c2.405-1.394,7.331-15.442,8.101-23.104c0.602-5.989,7.379-17.672,7.017-18.035c-0.361-0.364-65.245-3.44-65.245-3.44
		s3.393-6.896,3.77-7.721c0.377-0.825,1.988-1.904,3.581-2.398c1.593-0.494,4.342-1.52,6.108-2.279
		c1.778-0.764,9.86-0.83,12.54-2.07c5.19-2.401,14.85-3.479,20.247-2.256c2.477,0.561,8.75-0.996,12.232-0.996
		c7.181,0,38.308,4.516,42.082,0.998c9.833-9.167,36.833-1.176,68.481-1.926c0.743-0.018,2.167-2.036,2.167-2.036
		c2.229-2.095,5.538-2.757,5.538-1.107c0,0.511,0.691,1.62,1.536,2.465c1.382,1.382,1.945,1.323,5.603-0.583l4.067-2.12l2.469,3.155
		c2.802,3.58,3.732,3.733,10.189,1.684c0,0,0.001,0,0.001,0c2.254,0.586,7.039,2.484,8.134,4.539
		c0.852,1.599,0.535,2.007,4.75,1.736C634.205,319.555,635.318,317.414,635.318,317.414L635.318,317.414"/>
</g>
<g id="BasPont">
	<path id="path2997_2_" fill="#000103" d="M559.473,441.776c3.871-2.36,35.498-4.641,40.183-4.776
		c6.092-0.176,20.672-2.58,26.884-5.49c2.719-1.274,7.144-7.073,10.093-6.51c1.288,0.246,1.11,7.333,3.391,4
		c1.245-1.82-2.874-2.839,4.162-7.779c2.961-2.079,26.775-2.67,27.219-4.365c0.375-1.435,9.725-2.48,10.769-3.244
		c2.397-1.752,4.483-1.002,4.483,1.611c0,1.922,14.483-0.211,16.086-2.338c1.604-2.125,2.65-2.402,9.607-2.551
		c8.969-0.191,13.539-1.815,18.884-6.713c5.59-6.954-5.666-13.621-6.524-13.621c-1.634,0-13.052-10.33-13.052-11.809
		c0-1.943,5.52-3.682,10.902-3.434c14.141,0.652,77.605,7.641,82.57,7.793c10.361,2.116,27.832,5.116,42.347,2.373
		c4.199-1.008,9.355,0.764,10.316-1.654c1.554-3.91,5.569-29.875,2.364-47.736c-0.375-2.092-7.125-0.524-8.5,0.178
		c-3.281,1.676-5.462,1.619-9.05-0.236c-2.861-1.48-0.95-4.038-0.95-4.727c0-1.723-8.568-6.128-10.487-5.391
		c-2.183,0.837-3.03,3.585-1.742,5.646c1.475,2.361-0.272,3.996-4.271,3.996c-3.967,0-6.067-1.865-3.892-3.455
		c1.377-1.008,1.356-1.443-0.195-4.148c-1.517-2.643-2.62-3.186-8.788-4.326c-3.879-0.718-8.023-1.94-9.209-2.717
		c-1.975-1.295-2.511-1.117-6.381,2.117c-5.035,1.779-6.027,5.416-5.853,7.721c0.306,4.039,0.19,4.226-3.183,5.116
		c-1.925,0.509-79.5,1.192-79.5,1.192s-1.301-4.87-2.091-5.173c-1.875-0.72-4.409,1.427-4.409,3.736
		c0,2.476-1.143,2.992-4.586,2.077c-1.949-0.518-3.023-1.518-3.241-3.017c-0.427-2.923-3.556-2.425-3.992,0.636
		c-0.335,2.344-0.86,2.52-8.181,2.746c-5.799,0.178-41.953,0.631-44.25,0.553c-1.178-0.039-1.75-0.865-1.75-2.523
		c0-4.523-6.18-5.693-7.534-1.428c-0.335,1.057-4.28,3.963-7.176,3.42c-2.028-0.381-4.599-1.33-5.712-2.109
		c-2.776-1.945-4.847-1.782-9.075,0.713c-3.432,2.024-19.503-3.811-19.503-2.381c0,0.412-14.612,6.277-12.808,9.236
		c1.138,1.865,1.045,2.363-0.714,3.828c-7.979,5.852-24.313,33.523-25.143,34.549c-3.241,4.002-3.815,0.5-3.634-22.15
		c0.097-11.941-0.03-22.432-0.282-23.311c-0.825-2.886-5.246-3.902-16.966-3.902c-12.746,0-13.156,0.279-9.918,6.77
		c0.844,1.691,2.411,8.848,3.482,15.903c2.923,19.244,5.599,28.013,11.31,37.058c3.043,4.816,2.296,5.504,1.141,8.711
		c-4.302,11.939-12.635,17.559-15.3,27.243c-1.446,1.763-2.268,13.879,2.199,16.59c3.769,2.288,7.057,4.496,9.378,2.909
		C535.156,443.25,552.406,446,559.473,441.776z M663.814,360c-1.22-1.65-3.05-3-4.066-3c-2.768,0-9.349-2.951-11.381-5.104
		c-2.597-2.752-4.353-2.337-5.717,1.354l-1.202,3.25l-1.87-4c-3.997-8.551-3.029-9.327,12.626-10.117
		c19.089-0.963,22.624-0.708,24.726,1.789c1.128,1.341,1.533,2.861,1.114,4.182c-0.362,1.141-0.938,4.34-1.279,7.11
		c-0.573,4.646-0.83,5.036-3.31,5.036c-1.477,0-3.252,0.563-3.943,1.25C667.574,363.678,666.227,363.264,663.814,360z
		 M683.171,357.75c-3.482-10.313-3.774-11.918-2.405-13.217c4.153-3.94,9.675-1.721,8.359,3.36
		c-0.371,1.434-0.819,4.056-0.994,5.825c-0.176,1.771-0.607,3.684-0.956,4.25C686.288,359.402,683.681,359.26,683.171,357.75z
		 M809.06,330.5c0.084-3.949,0.366-4.5,2.311-4.5c2.715,0,4.667,3.342,3.852,6.594c-0.46,1.832-1.279,2.406-3.432,2.406
		C809.093,335,808.968,334.795,809.06,330.5z M216.656,444.5c1.374-1.656,1.501-1.611-5.249-1.861
		c-3.452-0.128-4.762,1.017-3.084,2.694C209.575,446.586,215.408,446.003,216.656,444.5z M317.411,444.25
		c0.304-0.925-1.369-1.224-6.423-1.147c-5.568,0.083-6.222,0.247-3.532,0.884c1.815,0.43,3.599,1.08,3.963,1.443
		C312.485,446.496,316.964,445.614,317.411,444.25L317.411,444.25z M857.156,328.986c0-0.878-1.125-1.615-2.75-1.803
		c-2.941-0.338-3.513,0.654-1.521,2.646C854.48,331.424,857.156,330.896,857.156,328.986L857.156,328.986z M707.479,325.668
		c0.294-2.558,0.066-2.785-2.491-2.492c-3.099,0.357-4.473,3.477-2.181,4.953C705.147,329.637,707.144,328.584,707.479,325.668z
		 M590.925,318.75c0.64-1.836-0.288-3.75-1.817-3.75c-1.757,0-2.769,1.732-2.072,3.548
		C587.718,320.327,590.327,320.463,590.925,318.75z M676.712,311.105c2.751,1.282,5.193-2.772,7.709-2.55
		c2.927,0.259,7.135,6.01,10.098,6.444c1.282,0.188,2.516-1.125,4.542-2.5c4.141-2.81,5.634-3.06,7.445-1.25
		c0.688,0.688,23.065,2.364,24.923,4.045c2.659,2.406,4.756,2.125,7.683-1.031c0,0,3.323-1.724,4.537-1.736
		c3.264-0.032,8.507,3.065,12.911,1.955c3.784-0.954,6.402,0.214,8.984,1.598c4.255,2.281,7.698,2.418,11.111,0.444
		c4.932-2.853,5.287-2.888,7.054-0.706c1.222,1.509,2.892,2.163,5.594,2.191c2.119,0.023,66.277,1.195,67.302,2.43
		c1.915,2.307,3.683,1.027,5.895-0.523c4.531-3.175,17.214,1.866,21.457,5.417c1.589,1.33,0.046,48.247,0.609,54.456
		c1.423,15.713,3.763,19.246,11.753,17.746c2.163-0.405,37.502,0.2,49.661,2.807c7.482,1.604,6.148-3.044,6.205-5.555
		c0.08-3.455,0.414-3.748,5.097-4.468c2.131-0.327,12.678-4.31,13.811-4.297c1.949,0.021,1.928,0.126-0.389,1.905
		c-2.155,1.656-2.281,2.088-1.047,3.575c1.242,1.497-5.002,2.123-5.002,3.556c0,1.328,4.368,1.174,5.745-0.204
		c2.318-2.318,11.668-4.929,15.431-4.31c3.364,0.555,3.63,0.428,3.13-1.484c-0.301-1.15-1.795-4.246-0.806-5.061
		c1.617-1.331,4.535,1.512,8.246,1.473c5.643-0.061,7.133-3.479,5.279-2.486c-2.573,1.377-5.025-0.139-5.025-3.109
		c0-1.494,0.764-1.886,3.75-1.92c2.063-0.024,14.164-2.142,15.893-2.353c3.475-0.426,9.577-4.439,8.759-5.763
		c-0.285-0.462-4.831-1.841-5.391-3.314c-1.085-2.852-4.567-4.021-9.321-3.129c-2.232,0.419-4.53,0.02-7.112-1.237
		c-4.884-2.375-3.158-3.161,6.94-3.161c4.044,0,14.559-2.336,16.483-2.473c11.567-0.818,11.615-0.838,4-1.645
		c-13.408-1.42-29-4.846-29-6.49c0-0.849,1.073-1.398,2.75-1.408c3.063-0.017,6.05-1.519,5.036-2.531
		c-0.676-0.676-10.604-2.379-16.786-2.88c0,0,12.512-3.834,25.764-4.837c2.821,0.458,3.438,0.206,3.91-1.596
		c0.487-1.863,12.26-1.605,13.472-0.509c1.438,1.302,43.487-2.651,44.212-2.589c11.143,0.957,29.92-0.199,37.343-6.343
		c7.99-6.613,8.688-32.199,17.876-37.01c1.17-0.613,5.339-3.299,7.231-6.58c0.912-1.582,0.773-7.11,3.393-7.11
		c1.222,0,5.356-10.912,7.623-10.423c1.473,0.318,3.686,1.067,4.918,1.665c2.994,1.451,7.259-0.441,7.259-3.221
		c0-2.584,2.172-2.594,4.5-0.022c1.933,2.136,4.983,2.645,6,1c0.34-0.55,7.307-1.975,9.591-3.164
		c3.385-1.765,4.504-1.945,6.054-0.978c1.339,0.836,8.154-1.191,8.455-1.191c0.301,0,0.019,200.333,0.019,200.333H-1.344V329.962
		c0,0,7.075,1.616,9,2.079c9.83,2.359,44.107,6.449,52,6.203c1.925-0.06,20.52,3.914,21.486,5.285
		c2.681,3.804-1.08,8.719-1.805,9.32c-1.73,1.436-12.401,3.792-21.1,4.657c-3.824,0.38-19.915,3.987-21.589,7.021
		c-1.194,2.165-2.503,3.058-4.816,3.286c-1.747,0.173-4.976-1.194-7.176-0.985c-3.137,0.3-4,0.794-4,2.291
		c0,2.367,13.8,1.269,14,7.791c0.167,5.423,9.883,6.342,13.5,6.446c4.804,0.138,4.989,0.249,4.72,2.843
		C52.55,389.345,54.871,391,59.611,391c2.24,0,21.878,8,24.544,12.957c6.921,10.71,39.168,9.409,41.817,9.977
		c5.932,1.27,6.683,1.717,6.683,3.971c0,2.207,3.059,5.096,5.395,5.096c4.506,0,6.143,10.435,9.551,9.022
		c1.79-0.741,4.539-0.982,6.782-0.596c9.773,3.906,19.773,3.573,25.966,1.981c7.503,0.377,9.02,0.756,10.536,2.627
		c0.974,1.202,3.992,3.002,8.736,4.523c5.534,1.774,16.749-2.571,21.397,0.55c4.803,3.225,22.137,2.559,23.689-1.672
		c1.38-1.663,4.426-1.097,7.197,1.337c1.581,1.388,6.349-1.954,13.148-0.791c6.044,1.034,31.238-1.014,33.177-0.13
		c1.416,0.645,20.148-0.508,21.55,0.761c1.298,1.174,19.443-0.012,34.192-0.159c22.884-0.228,32.297-3.469,36.262-3.498
		c3.257-0.025,17.421-0.956,24.575-5.956c0.41-0.286,8.095-3.067,6.337-5.01c-1.752-1.935,12.274-5.084,16.654-9.051
		c2.395-2.17,6.154-5.156,8.354-6.637c4.951-3.334,20.664-22.666,22.012-25.326c1.348-2.659,8.936-26.752,9.583-31.977
		c1.217-9.814,2.744-14.149,6.116-17.367c1.075-1.025,1.581-2.23,1.122-2.675c-0.458-0.444-68.13-3.265-68.13-3.265l2.293-4.097
		c1.51-2.696,3.099-4.202,4.648-4.405c1.296-0.169,14.948-2.705,16.798-3.661c4.803-2.483,19.321-4.187,22.673-2.659
		c1.875,0.854,18.267-1.55,19.385-2.699c6.875-7.067,39.423-1.088,39.423-1.088c0.232,0.228,4.17,0.533,8.75,0.676
		c6.87,0.215,8.896-0.089,11.577-1.735c0,0,31.621-4.566,40.153,0.726c2.856,1.771,4.498,2.859,5.915-0.25
		c1.125-2.469,3.182-3.439,3.182-1.5c0,0.55,2.444,4.784,4.038,5.038c2.248,0.359,5.625-4.721,7.894-4.538
		c2.248,0.181,5.782,6.922,5.782,6.922s7.955,0.552,12.905-0.829l1.773,0.98c-0.319,1.272-0.284,2.794,0.079,3.381
		c0.646,1.044,1.802,2.107,5.29,1.229l3.488-0.878C632.906,320.306,666.569,306.379,676.712,311.105z"/>
</g>
<g id="light" opacity="1">
	<path id="Orange" fill="#B8975B" d="M301.324,330.342c-0.963,0.963-9.592,0.774-11.202-0.245c-2.478-1.569-0.104-3.097,4.814-3.097
		C299.462,327,302.879,328.787,301.324,330.342z M327.973,342.467c0.703,0.848,0.71,2.934,0.022,6.562
		c-1.143,6.02-2.296,7.123-2.578,4.614c-0.917-8.145-6.382-10.221-5.603-11.412c0.456-0.699,1.697-1.148,2.758-1
		c1.061,0.148,1.713-1.871,0.227-2.042c-2.839-0.327-4.278-2.773-3.234-5.492c0.433-1.13,1.63-1.493,4.162-1.267
		c4.35,0.391,5.975,2.738,4.355,6.291C327.294,340.449,327.26,341.608,327.973,342.467z M339.507,331.371
		c-1.522,1.113-1.759,2.676-1.588,10.475c0.111,5.042-0.102,11.19-0.472,13.66c-1.678,11.186-3.914,0.216-2.867-14.059
		c0.677-9.217,0.625-9.581-1.439-10.121c-2.599-0.679-2.669-1.205-0.392-2.934c2.362-1.793,5.726-1.729,7.276,0.139
		C341.074,329.795,340.983,330.291,339.507,331.371z M357.233,330.998c-0.815,1.305-1.534,30.19-1.875,32.252
		c-1.757,10.627-3.82-1.81-3.13-18.864c0.358-8.849,0.152-11.862-0.881-12.896c-1.741-1.741-1.703-2.95,0.142-4.48
		c1.876-1.558,3.119-5.152,5.087-1.498C358.137,328.41,358.252,329.367,357.233,330.998z M367.37,363.75
		c-1.048,3.908-2.063,2.457-2.727-3.896c-1.3-12.436-0.2-21.935,2.355-20.355C368.077,340.166,368.381,359.977,367.37,363.75z
		 M378.9,352.809c-0.106,13.588-0.849,18.702-2.358,16.26c-1.08-1.748-1.233-27.141-0.174-28.855
		C378.23,337.199,378.993,340.99,378.9,352.809z M381.948,328.27c-0.854,0.677-1.979,2.746-2.5,4.6
		c-1.07,3.802-2.746,4.638-3.269,1.631c-0.855-4.916-6.678-6.063-7.677-1.512c-0.8,3.641-2.315,4.784-3.083,2.325
		c-0.311-0.997-0.983-2.595-1.493-3.55c-1.45-2.718-1.101-4.601,1.073-5.764c1.355-0.726,2.603-0.748,3.872-0.068
		c1.227,0.656,3.035,0.668,5.243,0.035c4.237-1.215,5.99-1.2,7.885,0.067C383.328,326.924,383.322,327.179,381.948,328.27z
		 M168.645,328.234c0,0-2.625-2.814-3.31-2.111c-0.174,0.179-0.164,7.624-0.674,16.483c-0.985,17.105-0.329,27.779,1.668,27.123
		c0.644-0.211,1.692-3.498,2.329-7.307C169.906,354.959,169.897,330.26,168.645,328.234 M273.483,331.178
		c3.841-0.049,8.043-0.656,9.339-1.35c2.014-1.078,5.503,2.172,7.668,2.172c4.732,0,5.281,1.701,1.627,5.039
		c-3.772,3.445,2.515,7.717-2.112,7.78c-4.86,0.067-6.006,0.698-6.006,3.306c0,1.104-2.21,5.973-3.547,4.207
		c-0.764-1.008-1.403-2.855-1.421-4.107c-0.021-1.505-4.108-3.558-6.442-1.725c-12.939,10.167-48.576,4.734-49.595,8.522
		c-1.382,5.133-6.129-0.064-7.244,3.79c-8.25,28.522-5.25,3.855-22.581-18.848c-2.885-3.779-8.619-0.579-10.169-1.464
		c-1.943-1.111,3.487-6.653,5.89-6.173c1.566,0.313,4.144,0.181,5.729-0.293c2.285-0.685,7.682-3.812,11.215-4.13
		C205.833,327.904,264.275,331.297,273.483,331.178z M801.93,346.309c-0.039,5.605-0.422,11.092-0.852,12.191
		c-0.738,1.889-0.829,1.86-1.62-0.5c-1.002-2.991-1.02-20.283-0.022-21.898C801.139,333.349,801.995,336.854,801.93,346.309z
		 M912.048,333.352c-0.576,0.577-1.056,5.121-1.064,10.099c-0.017,9.899-1.005,13.249-2.877,9.751
		c-0.609-1.139-1.229-5.596-2.263-3.816c-1.897,3.266-4.171,5.531-5.023,5.005C900.37,354.11,900,349.66,900,344.5
		c0-5.16-0.398-9.629-0.887-9.93c-1.257-0.777-2.011,16.241-2.718,16.842c-2.062,1.755-1.229-2.912-4.396-1.604
		c-0.92,0.38-0.661,2.683-1.468,3.75c-1.325,1.752-1.472,1.033-1.5-7.393c-0.024-7.029,0.276-9.231,1.218-8.922
		c0.688,0.226,1.25,10.549,3.75,6.699c1.035-1.594,0.438-4.987,0.976-6.858c0.791-2.76,0.668-3.626-0.653-4.592
		C891.595,330.5,893.816,329,899.5,329c2.96,0,7.644-2,8.898-2C911.108,327,913.769,331.631,912.048,333.352z M921.393,352.418
		c-0.623,1.626-2.544,2.098-3.726,0.916c-1.021-1.022-0.763-14.634,0.309-16.329C920.537,332.953,923.586,346.703,921.393,352.418z
		 M928.5,352c-2.426,0-2.365-9.453,0.076-11.965c1.235-1.27,1.424-0.576,1.424,5.25C930,350.588,929.685,352,928.5,352z
		 M943.31,345.356c-0.18,7.442-1.028,10.702-2.045,7.852c-0.338-0.948-4.387-0.318-4.21-5.939c0.26-8.311,1.013-11.457,2.455-10.261
		c0.703,0.584,1.889,0.933,2.634,0.776C943.207,337.561,943.459,339.201,943.31,345.356z M950.922,351.705
		c-1.426,3.75-3.595,2.773-4.221-1.9c-0.31-2.307-0.167-4.934,0.316-5.838c0.484-0.904,1.397-8.405,3.22-7.706
		C951.896,336.897,952.382,347.865,950.922,351.705z M986.109,351.857c-1.337,2.11-2.37-0.396-1.603-3.891
		c0.729-3.321,2.502-3.076,2.478,0.342C986.977,349.514,986.582,351.11,986.109,351.857z"/>
	<path id="Bleu_1_" fill="#6D8FB0" d="M212.354,367.248c1.999-7.239,2.599-35.703,0.79-37.512
		c-2.503-2.503-3.426,1.17-3.915,15.573c-0.496,14.608,0.183,23.688,1.771,23.688C211.478,368.998,212.088,368.211,212.354,367.248
		L212.354,367.248z M168.935,350.748c0.041-4.547-0.343-7.75-0.93-7.75c-0.603,0-0.972,3.869-0.93,9.75
		c0.046,6.378,0.368,9.059,0.93,7.75C168.478,359.398,168.896,355.011,168.935,350.748L168.935,350.748z M213.969,325.542
		c1.499-1.807,0.536-3.544-1.964-3.544c-2.248,0-3.389,1.545-2.62,3.548C210.101,327.412,212.419,327.41,213.969,325.542
		L213.969,325.542z"/>
	<g id="Pont">		
		<radialGradient id="SVGID_4_" cx="737.2834" cy="277.6794" r="3.4033" gradientTransform="matrix(0.4792 0 0 0.5093 380.5555 138.8462)" gradientUnits="userSpaceOnUse">
			<stop  offset="0" style="stop-color:#E5AF57"/>
			<stop  offset="1" style="stop-color:#E5D357"/>
		</radialGradient>
		<ellipse fill="url(#SVGID_4_)" cx="733.837" cy="280.258" rx="1.754" ry="1.592"/>
		<ellipse fill="url(#SVGID_4_)" cx="753.667" cy="275.144" rx="1.917" ry="1.739"/>
		<ellipse fill="url(#SVGID_4_)" cx="769.917" cy="272.194" rx="1.917" ry="1.739"/>
		<ellipse fill="url(#SVGID_4_)" cx="787.667" cy="268" rx="1.917" ry="1.739"/>
		<ellipse fill="url(#SVGID_4_)" cx="805" cy="265.027" rx="1.917" ry="1.739"/>
		<ellipse fill="url(#SVGID_4_)" cx="820.305" cy="262" rx="1.917" ry="1.739"/>
		<ellipse fill="url(#SVGID_4_)" cx="831.388" cy="260.238" rx="1.917" ry="1.739"/>
		<ellipse fill="url(#SVGID_4_)" cx="843.187" cy="258.499" rx="1.917" ry="1.739"/>
		<ellipse fill="url(#SVGID_4_)" cx="717.307" cy="284.706" rx="1.513" ry="1.373"/>
		<ellipse fill="url(#SVGID_4_)" cx="697" cy="290.373" rx="1.513" ry="1.373"/>
		<ellipse fill="url(#SVGID_4_)" cx="686.458" cy="293.011" rx="1.221" ry="1.108"/>
		<ellipse fill="url(#SVGID_4_)" cx="680.5" cy="295.007" rx="1.138" ry="1.032"/>
		<ellipse fill="url(#SVGID_4_)" cx="675.5" cy="296.04" rx="1.138" ry="1.032"/>
		<ellipse fill="url(#SVGID_4_)" cx="670.648" cy="297.072" rx="1.138" ry="1.032"/>
		<ellipse fill="url(#SVGID_4_)" cx="665.855" cy="298.104" rx="1.138" ry="1.032"/>
		<ellipse fill="url(#SVGID_4_)" cx="660.977" cy="299.137" rx="1.138" ry="1.032"/>
		<ellipse fill="url(#SVGID_4_)" cx="655.708" cy="300.591" rx="1.138" ry="1.032"/>
		<ellipse fill="url(#SVGID_4_)" cx="637.362" cy="305.625" rx="0.725" ry="0.658"/>
		<ellipse fill="url(#SVGID_4_)" cx="632.273" cy="307.167" rx="0.725" ry="0.658"/>
		<ellipse fill="url(#SVGID_4_)" cx="627.401" cy="308.333" rx="0.725" ry="0.658"/>
		<ellipse fill="url(#SVGID_4_)" cx="623" cy="309.5" rx="0.725" ry="0.658"/>>
		<ellipse fill="url(#SVGID_4_)" cx="617.833" cy="311" rx="0.725" ry="0.658"/>
		<ellipse fill="url(#SVGID_4_)" cx="613.75" cy="312.167" rx="0.725" ry="0.658"/>
		<ellipse fill="url(#SVGID_4_)" cx="918.333" cy="247.333" rx="1.917" ry="1.739"/>
		<ellipse fill="url(#SVGID_4_)" cx="939.167" cy="244.667" rx="1.917" ry="1.739"/>
		<ellipse fill="url(#SVGID_4_)" cx="962.667" cy="241.423" rx="1.917" ry="1.739"/>
		<ellipse fill="url(#SVGID_4_)" cx="989.106" cy="237.554" rx="2.121" ry="1.925"/>
		<ellipse fill="url(#SVGID_4_)" cx="1014.35" cy="233.92" rx="2.1" ry="1.906"/>
		<ellipse fill="url(#SVGID_4_)" cx="1043.667" cy="231.292" rx="2.1" ry="1.906"/>
		<ellipse fill="url(#SVGID_4_)" cx="1079.017" cy="229.386" rx="2.1" ry="1.906"/>
		<ellipse fill="url(#SVGID_4_)" cx="1121.841" cy="226.195" rx="2.1" ry="1.906"/>
		<ellipse fill="url(#SVGID_4_)" cx="1154.464" cy="224.289" rx="2.1" ry="1.906"/>
		<ellipse fill="url(#SVGID_4_)" cx="1186.444" cy="223.149" rx="2.1" ry="1.906"/>
		<ellipse fill="url(#SVGID_4_)" cx="868.087" cy="94.333" rx="1.138" ry="1.032"/>
		<ellipse fill="url(#SVGID_4_)" cx="880.668" cy="93.301" rx="1.138" ry="1.032"/>
		<ellipse fill="url(#SVGID_4_)" cx="645.725" cy="248.069" rx="0.725" ry="0.658"/>
		<ellipse fill="url(#SVGID_4_)" cx="642.607" cy="248.069" rx="0.725" ry="0.658"/>
	</g>
</g>
<g id="Corde">
	<path d="M697,289c0,0,131.418-147.733,164.977-187.699c3.028-3.606,6.441-3.95,2.012,1.023C827.847,142.908,697,289,697,289z"/>
	<path d="M717.307,283.333c0,0,113.475-134.154,144.941-173.592c2.84-3.558,6.039-3.898,1.887,1.01
		C830.244,150.799,717.307,283.333,717.307,283.333z"/>
	<path d="M842.948,257.419c0,0,18.822-42.199,23.087-54.514c1.4-4.045,3.261-5.744,0.907-0.164
		C863.931,209.882,842.948,257.419,842.948,257.419z"/>
	<path d="M734,279.667c0,0,97.771-119.841,128.344-159.677c2.758-3.594,5.867-3.938,1.832,1.02
		C831.25,161.462,734,279.667,734,279.667z"/>
	<path d="M753,274.667c0,0,81.515-104.331,110.534-143.808c2.618-3.562,5.569-3.902,1.74,1.011
		C834.019,171.959,753,274.667,753,274.667z"/>
	<path d="M831.388,260.238c0,0,28.724-58.247,34.226-71.244c1.808-4.269,3.942-5.97,0.993-0.112
		C862.833,196.38,831.388,260.238,831.388,260.238z"/>
	<path d="M820.305,261c0,0,37.269-67.216,44.55-82.24c2.392-4.935,5.164-6.924,1.279-0.145C861.162,187.293,820.305,261,820.305,261
		z"/>
	<path d="M805,263.333c0,0,49.107-77.321,58.833-94.624c3.194-5.683,6.832-8.006,1.665-0.188
		C858.883,178.528,805,263.333,805,263.333z"/>
	<path d="M787,268c0,0,62.209-90.332,74.657-110.569c4.09-6.648,8.7-9.39,2.101-0.237C855.313,168.909,787,268,787,268z"/>
	<path d="M769.5,271.479c0,0,76.459-102.827,91.892-125.885c5.07-7.574,10.736-10.729,2.57-0.291
		C853.514,158.665,769.5,271.479,769.5,271.479z"/>
	<path d="M1186.444,224.764c0,0-235.05-98.617-295.071-125.295c-5.416-2.407-11.521-2.637-3.598,0.683
		C952.417,127.243,1186.444,224.764,1186.444,224.764z"/>
	<path d="M1154.464,225.055c0,0-206.264-90.508-263.463-117.115c-5.16-2.4-10.977-2.63-3.428,0.681
		C949.176,135.64,1154.464,225.055,1154.464,225.055z"/>
	<path d="M927.969,259.307c0,0-34.165-45.69-41.906-59.024c-2.542-4.379-5.918-6.219-1.646-0.178
		C889.884,207.837,927.969,259.307,927.969,259.307z"/>
	<path d="M1121.841,226.195c0,0-176.035-81.064-231.079-108.01c-4.966-2.431-10.565-2.663-3.3,0.69
		C946.745,146.237,1121.841,226.195,1121.841,226.195z"/>
	<path d="M1077.966,229.5c0,0-139.769-72.825-189.527-100.38c-4.49-2.486-9.551-2.724-2.983,0.706
		C939.045,157.808,1077.966,229.5,1077.966,229.5z"/>
	<path d="M938.5,244c0,0-45.27-46.369-53.908-56.742c-2.838-3.407-6.249-4.724-1.599-0.062C888.943,193.163,938.5,244,938.5,244z"/>
	<path d="M961.592,241.423c0,0-63.128-52.753-75.408-64.591c-4.034-3.889-8.811-5.375-2.225-0.06
		C892.388,183.574,961.592,241.423,961.592,241.423z"/>
	<path d="M986.5,236c0,0-82.393-56.852-98.613-69.655c-5.329-4.205-11.596-5.774-2.91-0.039C896.093,173.647,986.5,236,986.5,236z"
		/>
	<path d="M1013.16,232.348c0,0-101.621-63.431-121.863-77.732c-6.649-4.697-14.352-6.458-3.553-0.049
		C901.563,162.771,1013.16,232.348,1013.16,232.348z"/>
	<path d="M1042.5,230.498c0,0-125.51-71.813-150.765-88.01c-8.296-5.32-17.751-7.344-4.327-0.075
		C904.583,151.717,1042.5,230.498,1042.5,230.498z"/>
	<path d="M686.252,292.746c0,0-29.884-29.725-36.514-38.504c-2.18-2.885-5.258-3.986-1.533-0.045
		C652.966,259.242,686.252,292.746,686.252,292.746z"/>
	<path d="M613.75,311c0,0,20.888-42.313,24.657-53.941c1.24-3.822,4.167-6.17,1.659-0.653C636.861,263.463,613.75,311,613.75,311z"
		/>
	<path d="M680.5,294.667c0,0-25.557-26.943-31.247-34.883c-1.87-2.608-4.484-3.624-1.298-0.055
		C652.03,264.3,680.5,294.667,680.5,294.667z"/>
	<path d="M675.5,295.75c0,0-21.802-23.488-26.664-30.402c-1.598-2.271-3.821-3.165-1.102-0.052
		C651.21,269.278,675.5,295.75,675.5,295.75z"/>
	<path d="M670.648,296.996c0,0-18.158-20.292-22.217-26.256c-1.334-1.958-3.177-2.738-0.912-0.052
		C650.417,274.128,670.648,296.996,670.648,296.996z"/>
	<path d="M665.855,297.676c0,0-14.555-17.576-17.826-22.725c-1.075-1.691-2.537-2.381-0.719-0.056
		C649.635,277.872,665.855,297.676,665.855,297.676z"/>
	<path d="M660.977,299c0,0-10.883-15.48-13.361-19.989c-0.814-1.48-1.879-2.112-0.515-0.066
		C648.843,281.563,660.977,299,660.977,299z"/>
	<path d="M656.151,300.25c0,0-7.254-12.968-8.941-16.72c-0.556-1.232-1.233-1.784-0.319-0.072
		C648.057,285.647,656.151,300.25,656.151,300.25z"/>
	<path d="M637.5,304.833c0,0,3.456-15.489,3.913-19.876c0.152-1.44,0.718-2.26,0.343-0.199
		C641.278,287.389,637.5,304.833,637.5,304.833z"/>
	<path d="M617.833,311c0,0,18.161-39.136,21.404-49.91c1.066-3.539,3.643-5.695,1.465-0.593
		C637.919,267.028,617.833,311,617.833,311z"/>
	<path d="M623,309.5c0,0,14.219-33.627,16.717-42.902c0.822-3.048,2.876-4.883,1.175-0.496C638.719,271.715,623,309.5,623,309.5z"/>
	<path d="M627.4,308.333c0,0,10.924-28.315,12.81-36.14c0.62-2.569,2.227-4.105,0.925-0.409
		C639.471,276.513,627.4,308.333,627.4,308.333z"/>
	<path d="M632.273,307.167c0,0,7.209-21.058,8.421-26.889c0.4-1.915,1.49-3.045,0.632-0.294
		C640.235,283.502,632.273,307.167,632.273,307.167z"/>
</g>
</svg>
